<svg xmlns="http://www.w3.org/2000/svg" xmlns:xlink="http://www.w3.org/1999/xlink" width="500" zoomAndPan="magnify" viewBox="0 0 375 374.999991" height="500" preserveAspectRatio="xMidYMid meet" version="1.0"><defs><clipPath id="16ed911da0"><path d="M 35.566406 37.5 L 339.316406 37.5 L 339.316406 341.25 L 35.566406 341.25 Z M 35.566406 37.5 " clip-rule="nonzero"/></clipPath></defs><g clip-path="url(#16ed911da0)"><path fill="#000000" d="M 268.542969 341.25 L 106.339844 341.25 C 67.316406 341.25 35.566406 309.5 35.566406 270.476562 L 35.566406 108.273438 C 35.566406 69.25 67.316406 37.5 106.339844 37.5 L 268.542969 37.5 C 307.566406 37.5 339.316406 69.25 339.316406 108.273438 L 339.316406 270.476562 C 339.316406 309.5 307.566406 341.25 268.542969 341.25 Z M 106.339844 49.207031 C 73.769531 49.207031 47.273438 75.703125 47.273438 108.273438 L 47.273438 270.476562 C 47.273438 303.046875 73.769531 329.542969 106.339844 329.542969 L 268.542969 329.542969 C 301.113281 329.542969 327.609375 303.046875 327.609375 270.476562 L 327.609375 108.273438 C 327.609375 75.703125 301.113281 49.207031 268.542969 49.207031 Z M 106.339844 49.207031 " fill-opacity="1" fill-rule="nonzero"/></g><path fill="#000000" d="M 187.441406 255.734375 C 147.625 255.734375 115.230469 223.339844 115.230469 183.523438 C 115.230469 143.703125 147.625 111.308594 187.441406 111.308594 C 227.257812 111.308594 259.652344 143.703125 259.652344 183.523438 C 259.652344 223.339844 227.257812 255.734375 187.441406 255.734375 Z M 187.441406 123.015625 C 154.078125 123.015625 126.933594 150.160156 126.933594 183.523438 C 126.933594 216.886719 154.078125 244.03125 187.441406 244.03125 C 220.804688 244.03125 247.949219 216.886719 247.949219 183.523438 C 247.949219 150.160156 220.804688 123.015625 187.441406 123.015625 Z M 187.441406 123.015625 " fill-opacity="1" fill-rule="nonzero"/><path fill="#000000" d="M 155.167969 183.523438 L 143.464844 183.523438 C 143.464844 159.273438 163.191406 139.542969 187.441406 139.542969 L 187.441406 151.25 C 169.644531 151.25 155.167969 165.726562 155.167969 183.523438 Z M 155.167969 183.523438 " fill-opacity="1" fill-rule="nonzero"/><path fill="#000000" d="M 283.699219 112.953125 C 272.492188 112.953125 263.375 103.832031 263.375 92.625 C 263.375 81.417969 272.492188 72.296875 283.699219 72.296875 C 294.910156 72.296875 304.027344 81.417969 304.027344 92.625 C 304.027344 103.832031 294.910156 112.953125 283.699219 112.953125 Z M 283.699219 84.003906 C 278.945312 84.003906 275.078125 87.871094 275.078125 92.625 C 275.078125 97.378906 278.945312 101.246094 283.699219 101.246094 C 288.453125 101.246094 292.320312 97.378906 292.320312 92.625 C 292.320312 87.871094 288.453125 84.003906 283.699219 84.003906 Z M 283.699219 84.003906 " fill-opacity="1" fill-rule="nonzero"/></svg>