<svg xmlns="http://www.w3.org/2000/svg" xmlns:xlink="http://www.w3.org/1999/xlink" width="500" zoomAndPan="magnify" viewBox="0 0 375 149.999998" height="200" preserveAspectRatio="xMidYMid meet" version="1.0"><defs><g/></defs><g fill="#000000" fill-opacity="1"><g transform="translate(6.912615, 85.786189)"><g><path d="M 1.359375 -0.25 C 1.785156 -0.25 2.148438 -0.398438 2.453125 -0.703125 C 2.765625 -1.003906 2.929688 -1.375 2.953125 -1.8125 L 2.953125 -15.546875 C 2.929688 -16.140625 2.65625 -16.585938 2.125 -16.890625 C 1.894531 -17.023438 1.640625 -17.09375 1.359375 -17.09375 L 1.046875 -17.09375 L 1.046875 -17.34375 L 8.5625 -17.34375 L 8.546875 -17.09375 L 8.25 -17.09375 C 7.65625 -17.09375 7.203125 -16.835938 6.890625 -16.328125 C 6.734375 -16.085938 6.65625 -15.828125 6.65625 -15.546875 L 6.65625 -1.8125 C 6.65625 -1.375 6.8125 -1.003906 7.125 -0.703125 C 7.445312 -0.398438 7.820312 -0.25 8.25 -0.25 L 8.546875 -0.25 L 8.5625 0 L 1.046875 0 L 1.046875 -0.25 Z M 19.25 0 L 17.21875 0 C 14.707031 0 12.929688 -0.6875 11.890625 -2.0625 C 8.929688 -6.070312 7.453125 -8.109375 7.453125 -8.171875 L 13.328125 -15.953125 C 13.453125 -16.117188 13.515625 -16.265625 13.515625 -16.390625 C 13.515625 -16.523438 13.492188 -16.640625 13.453125 -16.734375 C 13.316406 -16.984375 13.082031 -17.109375 12.75 -17.109375 L 12.5 -17.109375 L 12.5 -17.34375 L 18.171875 -17.34375 L 18.171875 -17.109375 L 18.078125 -17.109375 C 16.972656 -17.109375 16.070312 -16.710938 15.375 -15.921875 L 10.546875 -10.203125 L 16.71875 -1.78125 C 17.476562 -0.789062 18.320312 -0.28125 19.25 -0.25 Z M 19.25 0 "/></g></g></g><g fill="#000000" fill-opacity="1"><g transform="translate(28.349027, 85.786189)"><g><path d="M 1.359375 -0.25 C 1.785156 -0.25 2.148438 -0.398438 2.453125 -0.703125 C 2.765625 -1.003906 2.929688 -1.375 2.953125 -1.8125 L 2.953125 -15.53125 C 2.929688 -15.957031 2.765625 -16.320312 2.453125 -16.625 C 2.148438 -16.9375 1.785156 -17.09375 1.359375 -17.09375 L 1.046875 -17.09375 L 1.046875 -17.34375 L 8.5625 -17.34375 L 8.546875 -17.09375 L 8.25 -17.09375 C 7.820312 -17.09375 7.445312 -16.9375 7.125 -16.625 C 6.8125 -16.320312 6.65625 -15.957031 6.65625 -15.53125 L 6.65625 -1.0625 L 9.90625 -1.0625 C 11.113281 -1.0625 12.125 -1.40625 12.9375 -2.09375 C 13.757812 -2.789062 14.367188 -3.773438 14.765625 -5.046875 L 15.015625 -5.046875 L 13.875 0 L 1.046875 0 L 1.046875 -0.25 Z M 1.359375 -0.25 "/></g></g></g><g fill="#000000" fill-opacity="1"><g transform="translate(46.295445, 85.786189)"><g><path d="M 18.28125 -0.25 L 18.5 -0.25 L 18.5 0 L 10.609375 0 L 10.609375 -0.25 L 10.828125 -0.25 C 11.191406 -0.25 11.457031 -0.359375 11.625 -0.578125 C 11.800781 -0.804688 11.890625 -1.019531 11.890625 -1.21875 C 11.890625 -1.414062 11.847656 -1.613281 11.765625 -1.8125 L 10.5625 -4.859375 L 4.765625 -4.859375 L 3.46875 -1.8125 C 3.382812 -1.59375 3.34375 -1.390625 3.34375 -1.203125 C 3.34375 -1.015625 3.429688 -0.804688 3.609375 -0.578125 C 3.796875 -0.359375 4.070312 -0.25 4.4375 -0.25 L 4.640625 -0.25 L 4.640625 0 L -0.65625 0 L -0.65625 -0.25 L -0.4375 -0.25 C -0.0625 -0.25 0.3125 -0.363281 0.6875 -0.59375 C 1.070312 -0.820312 1.390625 -1.171875 1.640625 -1.640625 L 7.359375 -14.59375 C 8.140625 -16.21875 8.550781 -17.296875 8.59375 -17.828125 L 8.828125 -17.828125 L 16.171875 -1.6875 C 16.421875 -1.207031 16.734375 -0.847656 17.109375 -0.609375 C 17.492188 -0.367188 17.882812 -0.25 18.28125 -0.25 Z M 5.1875 -5.890625 L 10.140625 -5.890625 L 7.734375 -11.984375 Z M 5.1875 -5.890625 "/></g></g></g><g fill="#000000" fill-opacity="1"><g transform="translate(66.71703, 85.786189)"><g><path d="M 19.5625 -17.09375 L 19.140625 -17.09375 C 18.796875 -17.09375 18.5 -16.976562 18.25 -16.75 C 18 -16.53125 17.867188 -16.253906 17.859375 -15.921875 L 17.859375 -6.265625 C 17.859375 -4.234375 17.222656 -2.625 15.953125 -1.4375 C 14.679688 -0.25 12.9375 0.34375 10.71875 0.34375 C 8.113281 0.34375 6.117188 -0.234375 4.734375 -1.390625 C 3.347656 -2.554688 2.65625 -4.171875 2.65625 -6.234375 L 2.65625 -15.84375 C 2.632812 -16.34375 2.410156 -16.707031 1.984375 -16.9375 C 1.785156 -17.039062 1.570312 -17.09375 1.34375 -17.09375 L 0.9375 -17.09375 L 0.9375 -17.34375 L 8.078125 -17.34375 L 8.078125 -17.09375 L 7.671875 -17.09375 C 7.304688 -17.09375 7 -16.976562 6.75 -16.75 C 6.507812 -16.53125 6.378906 -16.25 6.359375 -15.90625 L 6.359375 -6.4375 C 6.359375 -4.6875 6.785156 -3.300781 7.640625 -2.28125 C 8.503906 -1.257812 9.6875 -0.75 11.1875 -0.75 C 12.695312 -0.75 13.890625 -1.226562 14.765625 -2.1875 C 15.640625 -3.15625 16.082031 -4.460938 16.09375 -6.109375 L 16.09375 -15.90625 C 16.0625 -16.382812 15.835938 -16.726562 15.421875 -16.9375 C 15.222656 -17.039062 15.007812 -17.09375 14.78125 -17.09375 L 14.390625 -17.09375 L 14.390625 -17.34375 L 19.5625 -17.34375 Z M 19.5625 -17.09375 "/></g></g></g><g fill="#000000" fill-opacity="1"><g transform="translate(89.73755, 85.786189)"><g><path d="M 10.03125 -17.34375 C 12.945312 -17.34375 15.253906 -16.566406 16.953125 -15.015625 C 18.660156 -13.460938 19.515625 -11.347656 19.515625 -8.671875 C 19.515625 -5.992188 18.660156 -3.878906 16.953125 -2.328125 C 15.253906 -0.773438 12.945312 0 10.03125 0 L 1.046875 0 L 1.046875 -0.25 L 1.359375 -0.25 C 1.785156 -0.25 2.148438 -0.398438 2.453125 -0.703125 C 2.765625 -1.003906 2.929688 -1.375 2.953125 -1.8125 L 2.953125 -15.671875 C 2.953125 -16.066406 2.789062 -16.398438 2.46875 -16.671875 C 2.144531 -16.953125 1.773438 -17.09375 1.359375 -17.09375 L 1.046875 -17.09375 L 1.046875 -17.34375 Z M 9.703125 -1.0625 C 10.890625 -1.0625 11.914062 -1.363281 12.78125 -1.96875 C 13.65625 -2.582031 14.320312 -3.460938 14.78125 -4.609375 C 15.25 -5.765625 15.484375 -7.019531 15.484375 -8.375 C 15.484375 -9.726562 15.34375 -10.878906 15.0625 -11.828125 C 14.789062 -12.773438 14.410156 -13.578125 13.921875 -14.234375 C 12.898438 -15.609375 11.492188 -16.296875 9.703125 -16.296875 L 6.65625 -16.296875 L 6.65625 -1.0625 Z M 9.703125 -1.0625 "/></g></g></g><g fill="#000000" fill-opacity="1"><g transform="translate(112.931327, 85.786189)"><g><path d="M 1.359375 -0.25 C 1.785156 -0.25 2.148438 -0.398438 2.453125 -0.703125 C 2.765625 -1.003906 2.929688 -1.375 2.953125 -1.8125 L 2.953125 -15.546875 C 2.929688 -15.984375 2.765625 -16.347656 2.453125 -16.640625 C 2.148438 -16.941406 1.785156 -17.09375 1.359375 -17.09375 L 1.046875 -17.09375 L 1.046875 -17.34375 L 8.5625 -17.34375 L 8.546875 -17.09375 L 8.25 -17.09375 C 7.820312 -17.09375 7.445312 -16.941406 7.125 -16.640625 C 6.8125 -16.347656 6.65625 -15.984375 6.65625 -15.546875 L 6.65625 -1.8125 C 6.65625 -1.375 6.8125 -1.003906 7.125 -0.703125 C 7.445312 -0.398438 7.820312 -0.25 8.25 -0.25 L 8.546875 -0.25 L 8.5625 0 L 1.046875 0 L 1.046875 -0.25 Z M 1.359375 -0.25 "/></g></g></g><g fill="#000000" fill-opacity="1"><g transform="translate(125.184853, 85.786189)"><g><path d="M 18.28125 -0.25 L 18.5 -0.25 L 18.5 0 L 10.609375 0 L 10.609375 -0.25 L 10.828125 -0.25 C 11.191406 -0.25 11.457031 -0.359375 11.625 -0.578125 C 11.800781 -0.804688 11.890625 -1.019531 11.890625 -1.21875 C 11.890625 -1.414062 11.847656 -1.613281 11.765625 -1.8125 L 10.5625 -4.859375 L 4.765625 -4.859375 L 3.46875 -1.8125 C 3.382812 -1.59375 3.34375 -1.390625 3.34375 -1.203125 C 3.34375 -1.015625 3.429688 -0.804688 3.609375 -0.578125 C 3.796875 -0.359375 4.070312 -0.25 4.4375 -0.25 L 4.640625 -0.25 L 4.640625 0 L -0.65625 0 L -0.65625 -0.25 L -0.4375 -0.25 C -0.0625 -0.25 0.3125 -0.363281 0.6875 -0.59375 C 1.070312 -0.820312 1.390625 -1.171875 1.640625 -1.640625 L 7.359375 -14.59375 C 8.140625 -16.21875 8.550781 -17.296875 8.59375 -17.828125 L 8.828125 -17.828125 L 16.171875 -1.6875 C 16.421875 -1.207031 16.734375 -0.847656 17.109375 -0.609375 C 17.492188 -0.367188 17.882812 -0.25 18.28125 -0.25 Z M 5.1875 -5.890625 L 10.140625 -5.890625 L 7.734375 -11.984375 Z M 5.1875 -5.890625 "/></g></g></g><g fill="#000000" fill-opacity="1"><g transform="translate(147.793353, 117.209683)"><g><path d="M 31.28125 30.09375 C 27.914062 31.375 25.546875 30.382812 24.171875 27.125 C 23.179688 24.5625 23.082031 21.84375 23.875 18.96875 C 24.757812 14.820312 26.632812 10.378906 29.5 5.640625 C 31.675781 2.472656 33.359375 0.148438 34.546875 -1.328125 C 43.046875 -12.203125 49.664062 -20.0625 54.40625 -24.90625 C 55 -25.695312 55.394531 -26.6875 55.59375 -27.875 C 56.476562 -33.707031 56.820312 -40.773438 56.625 -49.078125 C 56.625 -51.941406 56.425781 -54.507812 56.03125 -56.78125 C 55.832031 -58.0625 55.539062 -59.195312 55.15625 -60.1875 C 54.65625 -61.082031 53.8125 -61.476562 52.625 -61.375 C 52.03125 -61.28125 51.238281 -60.9375 50.25 -60.34375 C 48.476562 -59.050781 46.945312 -57.765625 45.65625 -56.484375 C 44.664062 -55.492188 43.648438 -54.453125 42.609375 -53.359375 C 41.578125 -52.273438 40.394531 -51.039062 39.0625 -49.65625 C 37.726562 -48.28125 36.71875 -47.195312 36.03125 -46.40625 C 31.582031 -41.757812 27.628906 -37.90625 24.171875 -34.84375 C 21.203125 -32.269531 18.828125 -30.488281 17.046875 -29.5 C 15.566406 -28.707031 13.789062 -28.066406 11.71875 -27.578125 C 8.75 -27.179688 6.375 -28.21875 4.59375 -30.6875 C 3.800781 -31.875 3.160156 -33.304688 2.671875 -34.984375 C 1.484375 -39.335938 1.1875 -43.738281 1.78125 -48.1875 C 3.757812 -62.21875 8.648438 -74.71875 16.453125 -85.6875 C 18.828125 -88.851562 21.347656 -91.617188 24.015625 -93.984375 C 26.191406 -95.960938 28.5625 -97.398438 31.125 -98.296875 C 34.882812 -99.671875 38.195312 -99.617188 41.0625 -98.140625 C 42.738281 -97.253906 44.070312 -96.066406 45.0625 -94.578125 C 45.5625 -93.691406 45.710938 -92.953125 45.515625 -92.359375 C 45.316406 -91.960938 45.164062 -91.71875 45.0625 -91.625 C 44.769531 -91.519531 44.472656 -91.617188 44.171875 -91.921875 C 43.390625 -93.003906 42.898438 -93.59375 42.703125 -93.6875 C 40.128906 -95.46875 37.507812 -95.960938 34.84375 -95.171875 C 32.5625 -94.484375 30.285156 -93.347656 28.015625 -91.765625 C 25.453125 -89.585938 22.984375 -86.921875 20.609375 -83.765625 C 15.171875 -76.453125 11.019531 -67.65625 8.15625 -57.375 C 6.476562 -51.738281 5.585938 -46.695312 5.484375 -42.25 C 5.285156 -39.082031 5.53125 -36.316406 6.21875 -33.953125 C 7.207031 -30.191406 9.53125 -28.804688 13.1875 -29.796875 C 14.96875 -30.390625 16.75 -31.226562 18.53125 -32.3125 C 19.914062 -33.207031 21.988281 -34.835938 24.75 -37.203125 C 26.132812 -38.390625 31.867188 -44.175781 41.953125 -54.5625 C 42.453125 -55.15625 43.019531 -55.742188 43.65625 -56.328125 C 44.300781 -56.921875 45.019531 -57.613281 45.8125 -58.40625 C 46.601562 -59.195312 47.195312 -59.789062 47.59375 -60.1875 C 48.875 -61.269531 50.007812 -62.0625 51 -62.5625 C 53.863281 -64.039062 55.9375 -63.300781 57.21875 -60.34375 C 58.007812 -58.0625 58.457031 -55.835938 58.5625 -53.671875 C 58.957031 -46.453125 58.859375 -38.9375 58.265625 -31.125 C 58.265625 -30.144531 58.3125 -29.554688 58.40625 -29.359375 L 59.296875 -29.953125 C 63.054688 -33.609375 68.34375 -38.101562 75.15625 -43.4375 L 79.90625 -47.4375 C 80.101562 -47.632812 80.398438 -47.632812 80.796875 -47.4375 C 80.890625 -47.4375 80.9375 -47.285156 80.9375 -46.984375 C 80.9375 -46.691406 80.890625 -46.5 80.796875 -46.40625 L 80.203125 -45.8125 C 80.003906 -45.613281 79.65625 -45.289062 79.15625 -44.84375 C 78.664062 -44.394531 78.273438 -44.070312 77.984375 -43.875 C 71.753906 -38.738281 68.441406 -36.023438 68.046875 -35.734375 L 59.59375 -28.015625 C 58.40625 -27.128906 57.664062 -25.648438 57.375 -23.578125 C 56.875 -18.234375 55.640625 -12.445312 53.671875 -6.21875 C 51.492188 1.488281 48.523438 8.898438 44.765625 16.015625 C 42.296875 20.859375 39.085938 24.8125 35.140625 27.875 C 34.046875 28.664062 32.757812 29.40625 31.28125 30.09375 Z M 29.359375 28.3125 C 29.753906 28.3125 30.441406 28.113281 31.421875 27.71875 C 32.609375 27.226562 33.945312 26.238281 35.4375 24.75 C 38.5 21.789062 41.019531 18.285156 43 14.234375 C 48.425781 3.660156 52.128906 -7.015625 54.109375 -17.796875 C 54.609375 -20.265625 54.804688 -21.84375 54.703125 -22.53125 C 54.410156 -22.332031 53.671875 -21.691406 52.484375 -20.609375 C 46.453125 -13.890625 40.320312 -6.378906 34.09375 1.921875 C 31.925781 4.984375 30.25 7.65625 29.0625 9.9375 C 27.28125 13.6875 26.09375 16.894531 25.5 19.5625 C 25 22.238281 25.195312 24.5625 26.09375 26.53125 C 26.78125 28.019531 27.867188 28.613281 29.359375 28.3125 Z M 29.359375 28.3125 "/></g></g></g><g fill="#000000" fill-opacity="1"><g transform="translate(225.773983, 117.209683)"><g><path d="M 14.828125 -30.84375 C 10.078125 -30.84375 6.46875 -33.015625 4 -37.359375 C 3.90625 -37.753906 3.734375 -38.296875 3.484375 -38.984375 C 3.234375 -39.679688 3.007812 -40.175781 2.8125 -40.46875 C 0.9375 -44.226562 0.835938 -51.738281 2.515625 -63 C 4.097656 -74.175781 7.210938 -85.050781 11.859375 -95.625 C 13.734375 -99.875 15.757812 -103.476562 17.9375 -106.4375 C 18.925781 -107.820312 20.359375 -109.40625 22.234375 -111.1875 C 23.421875 -112.175781 24.753906 -113.066406 26.234375 -113.859375 C 28.117188 -114.648438 29.945312 -114.648438 31.71875 -113.859375 C 33.5 -113.066406 34.738281 -111.734375 35.4375 -109.859375 C 36.03125 -108.273438 36.328125 -106.25 36.328125 -103.78125 C 36.222656 -100.125 35.429688 -96.269531 33.953125 -92.21875 C 32.367188 -87.96875 29.648438 -82.476562 25.796875 -75.75 C 20.953125 -67.351562 14.875 -58.410156 7.5625 -48.921875 C 7.257812 -48.722656 6.910156 -48.328125 6.515625 -47.734375 C 6.128906 -47.140625 5.835938 -46.742188 5.640625 -46.546875 C 4.847656 -45.660156 4.597656 -44.671875 4.890625 -43.578125 C 5.878906 -40.421875 6.570312 -38.492188 6.96875 -37.796875 C 9.144531 -34.046875 12.40625 -32.316406 16.75 -32.609375 C 20.90625 -33.109375 25.453125 -37.160156 30.390625 -44.765625 C 30.585938 -45.265625 30.984375 -45.910156 31.578125 -46.703125 C 31.671875 -46.796875 31.816406 -46.84375 32.015625 -46.84375 C 32.316406 -46.75 32.46875 -46.503906 32.46875 -46.109375 C 32.164062 -45.515625 32.015625 -45.21875 32.015625 -45.21875 C 26.785156 -35.925781 21.054688 -31.132812 14.828125 -30.84375 Z M 4.75 -48.03125 C 5.144531 -48.226562 5.832031 -48.96875 6.8125 -50.25 C 7.601562 -51.4375 9.109375 -53.5625 11.328125 -56.625 C 13.554688 -59.695312 15.265625 -62.070312 16.453125 -63.75 C 22.085938 -72.144531 26.535156 -79.707031 29.796875 -86.4375 C 32.367188 -91.46875 34 -96.40625 34.6875 -101.25 C 35.082031 -104.613281 34.9375 -107.234375 34.25 -109.109375 C 33.65625 -110.785156 32.613281 -111.894531 31.125 -112.4375 C 29.644531 -112.988281 28.113281 -112.769531 26.53125 -111.78125 C 25.84375 -111.289062 24.90625 -110.453125 23.71875 -109.265625 C 21.050781 -106.492188 18.679688 -103.082031 16.609375 -99.03125 C 13.347656 -92.601562 10.628906 -85.4375 8.453125 -77.53125 C 5.984375 -68.832031 4.597656 -59.789062 4.296875 -50.40625 C 4.296875 -49.21875 4.445312 -48.425781 4.75 -48.03125 Z M 4.75 -48.03125 "/></g></g></g><g fill="#000000" fill-opacity="1"><g transform="translate(254.683147, 117.209683)"><g><path d="M 21.9375 -47.296875 C 22.238281 -47.296875 22.289062 -47.117188 22.09375 -46.765625 C 21.894531 -46.421875 21.445312 -46.25 20.75 -46.25 L 12.453125 -45.8125 L 11.125 -45.8125 C 11.125 -45.707031 11.097656 -45.503906 11.046875 -45.203125 C 10.992188 -44.910156 10.96875 -44.664062 10.96875 -44.46875 C 10.570312 -42.894531 10.175781 -41.710938 9.78125 -40.921875 C 9.1875 -39.734375 8.445312 -38.691406 7.5625 -37.796875 C 5.488281 -36.222656 3.660156 -36.472656 2.078125 -38.546875 C 1.179688 -39.535156 0.734375 -41.066406 0.734375 -43.140625 C 0.929688 -45.210938 1.773438 -47.238281 3.265625 -49.21875 C 4.347656 -50.300781 5.238281 -50.644531 5.9375 -50.25 C 6.125 -50.15625 6.171875 -49.957031 6.078125 -49.65625 C 6.671875 -49.851562 7.164062 -49.953125 7.5625 -49.953125 C 9.238281 -49.953125 10.328125 -49.066406 10.828125 -47.296875 L 12.453125 -47.296875 C 13.929688 -47.390625 16.597656 -47.4375 20.453125 -47.4375 C 20.554688 -47.4375 20.78125 -47.410156 21.125 -47.359375 C 21.46875 -47.316406 21.738281 -47.296875 21.9375 -47.296875 Z M 9.34375 -47.296875 C 8.75 -48.972656 7.90625 -49.515625 6.8125 -48.921875 C 6.519531 -48.722656 6.375 -48.476562 6.375 -48.1875 C 6.375 -47.59375 7.363281 -47.296875 9.34375 -47.296875 Z M 7.265625 -39.578125 C 8.648438 -40.867188 9.441406 -42.695312 9.640625 -45.0625 L 9.640625 -45.8125 C 6.773438 -46.007812 5.34375 -46.800781 5.34375 -48.1875 L 5.34375 -48.625 C 3.65625 -46.351562 3.160156 -43.6875 3.859375 -40.625 C 4.054688 -39.632812 4.5 -39.039062 5.1875 -38.84375 C 5.875 -38.644531 6.566406 -38.890625 7.265625 -39.578125 Z M 7.265625 -39.578125 "/></g></g></g><g fill="#000000" fill-opacity="1"><g transform="translate(273.955934, 117.209683)"><g><path d="M 25.640625 -26.09375 C 23.171875 -24.019531 20.898438 -24.265625 18.828125 -26.828125 C 17.441406 -28.515625 16.601562 -30.394531 16.3125 -32.46875 C 15.71875 -35.625 15.320312 -38.242188 15.125 -40.328125 C 15.125 -40.523438 15.125 -40.820312 15.125 -41.21875 C 15.125 -41.613281 15.070312 -41.910156 14.96875 -42.109375 C 14.96875 -42.304688 14.894531 -42.820312 14.75 -43.65625 C 14.601562 -44.5 14.429688 -45.117188 14.234375 -45.515625 C 13.835938 -45.515625 13.488281 -45.414062 13.1875 -45.21875 C 12.894531 -45.019531 12.675781 -44.820312 12.53125 -44.625 C 12.382812 -44.425781 12.1875 -44.148438 11.9375 -43.796875 C 11.6875 -43.453125 11.515625 -43.234375 11.421875 -43.140625 C 10.722656 -42.453125 9.78125 -41.414062 8.59375 -40.03125 C 8 -39.4375 7.304688 -38.890625 6.515625 -38.390625 C 5.035156 -37.597656 3.800781 -37.847656 2.8125 -39.140625 C 2.019531 -40.128906 1.570312 -41.410156 1.46875 -42.984375 C 1.375 -44.566406 1.675781 -45.90625 2.375 -47 L 2.96875 -47.59375 C 3.363281 -47.882812 3.757812 -47.957031 4.15625 -47.8125 C 4.550781 -47.664062 4.796875 -47.394531 4.890625 -47 C 5.085938 -46.601562 5.1875 -45.957031 5.1875 -45.0625 C 5.1875 -43.488281 5.335938 -42.304688 5.640625 -41.515625 C 5.835938 -41.117188 6.128906 -40.96875 6.515625 -41.0625 C 7.210938 -41.363281 7.957031 -41.859375 8.75 -42.546875 C 9.632812 -43.234375 10.867188 -44.367188 12.453125 -45.953125 C 12.546875 -46.054688 12.664062 -46.207031 12.8125 -46.40625 C 12.96875 -46.601562 13.117188 -46.75 13.265625 -46.84375 C 13.410156 -46.945312 13.535156 -47.046875 13.640625 -47.140625 C 14.328125 -47.734375 14.96875 -47.632812 15.5625 -46.84375 C 15.957031 -46.25 16.253906 -45.554688 16.453125 -44.765625 C 16.554688 -43.878906 16.726562 -42.617188 16.96875 -40.984375 C 17.21875 -39.359375 17.394531 -38.148438 17.5 -37.359375 C 17.894531 -34.691406 18.238281 -32.863281 18.53125 -31.875 C 19.125 -30.195312 19.765625 -28.863281 20.453125 -27.875 C 21.742188 -26.289062 23.226562 -26.09375 24.90625 -27.28125 C 26.382812 -28.5625 27.519531 -29.941406 28.3125 -31.421875 C 30.488281 -35.378906 31.820312 -39.140625 32.3125 -42.703125 C 32.414062 -43.085938 32.539062 -43.648438 32.6875 -44.390625 C 32.832031 -45.140625 32.90625 -45.660156 32.90625 -45.953125 C 33.207031 -46.941406 33.800781 -47.09375 34.6875 -46.40625 C 37.0625 -44.71875 39.382812 -43.675781 41.65625 -43.28125 C 44.320312 -42.695312 46.941406 -42.847656 49.515625 -43.734375 C 51.492188 -44.222656 53.765625 -45.113281 56.328125 -46.40625 C 57.421875 -46.800781 58.113281 -46.945312 58.40625 -46.84375 C 58.601562 -46.84375 58.703125 -46.742188 58.703125 -46.546875 C 58.898438 -46.347656 58.898438 -46.148438 58.703125 -45.953125 L 58.109375 -45.359375 C 53.960938 -43.085938 50.304688 -41.65625 47.140625 -41.0625 C 42.296875 -40.375 38.296875 -41.164062 35.140625 -43.4375 C 35.035156 -43.53125 34.9375 -43.578125 34.84375 -43.578125 C 34.644531 -43.679688 34.492188 -43.734375 34.390625 -43.734375 C 34.097656 -43.429688 33.800781 -42.640625 33.5 -41.359375 C 32.90625 -38.785156 31.820312 -35.722656 30.25 -32.171875 C 29.65625 -30.785156 28.765625 -29.351562 27.578125 -27.875 C 26.585938 -26.882812 25.941406 -26.289062 25.640625 -26.09375 Z M 25.640625 -26.09375 "/></g></g></g><path stroke-linecap="butt" transform="matrix(0.75, 0, 0, 0.75, 7.273847, 103.113769)" fill="none" stroke-linejoin="miter" d="M -0.000546454 0.99935 L 436.838021 0.99935 " stroke="#000000" stroke-width="2" stroke-opacity="1" stroke-miterlimit="4"/><g fill="#000000" fill-opacity="1"><g transform="translate(264.158948, 123.930457)"><g><path d="M 8.578125 0.28125 C 6.265625 0.28125 4.40625 -0.382812 3 -1.71875 C 1.601562 -3.050781 0.90625 -4.847656 0.90625 -7.109375 C 0.90625 -9.378906 1.601562 -11.175781 3 -12.5 C 4.40625 -13.820312 6.304688 -14.484375 8.703125 -14.484375 C 9.785156 -14.484375 10.832031 -14.378906 11.84375 -14.171875 C 12.863281 -13.960938 13.6875 -13.703125 14.3125 -13.390625 L 14.34375 -9.90625 L 14.171875 -9.90625 C 13.816406 -11.21875 13.210938 -12.164062 12.359375 -12.75 C 11.503906 -13.34375 10.488281 -13.640625 9.3125 -13.640625 C 7.675781 -13.640625 6.414062 -13.050781 5.53125 -11.875 C 4.65625 -10.707031 4.21875 -9.101562 4.21875 -7.0625 C 4.21875 -5.03125 4.617188 -3.4375 5.421875 -2.28125 C 6.234375 -1.132812 7.375 -0.5625 8.84375 -0.5625 C 9.914062 -0.5625 10.8125 -0.867188 11.53125 -1.484375 C 11.882812 -1.796875 12.140625 -2.160156 12.296875 -2.578125 L 12.296875 -5.6875 C 12.296875 -5.976562 12.203125 -6.203125 12.015625 -6.359375 C 11.835938 -6.515625 11.582031 -6.59375 11.25 -6.59375 L 10.921875 -6.59375 L 10.921875 -6.796875 L 16.625 -6.796875 L 16.625 -6.59375 L 16.3125 -6.59375 C 15.988281 -6.59375 15.738281 -6.515625 15.5625 -6.359375 C 15.382812 -6.203125 15.296875 -5.976562 15.296875 -5.6875 L 15.296875 -2.328125 C 14.773438 -1.640625 13.90625 -1.03125 12.6875 -0.5 C 11.46875 0.0195312 10.097656 0.28125 8.578125 0.28125 Z M 8.578125 0.28125 "/></g></g></g><g fill="#000000" fill-opacity="1"><g transform="translate(287.214725, 123.930457)"><g><path d="M 1.109375 -0.203125 C 1.460938 -0.203125 1.765625 -0.328125 2.015625 -0.578125 C 2.265625 -0.828125 2.398438 -1.128906 2.421875 -1.484375 L 2.421875 -12.75 C 2.398438 -13.101562 2.265625 -13.398438 2.015625 -13.640625 C 1.765625 -13.878906 1.460938 -14 1.109375 -14 L 0.859375 -14 L 0.859375 -14.203125 L 7.015625 -14.203125 L 7 -14 L 6.765625 -14 C 6.410156 -14 6.101562 -13.878906 5.84375 -13.640625 C 5.582031 -13.398438 5.453125 -13.101562 5.453125 -12.75 L 5.453125 -1.484375 C 5.453125 -1.128906 5.582031 -0.828125 5.84375 -0.578125 C 6.101562 -0.328125 6.410156 -0.203125 6.765625 -0.203125 L 7 -0.203125 L 7.015625 0 L 0.859375 0 L 0.859375 -0.203125 Z M 1.109375 -0.203125 "/></g></g></g><g fill="#000000" fill-opacity="1"><g transform="translate(301.138772, 123.930457)"><g><path d="M 6.453125 -13.3125 L 5.578125 -13.3125 C 5.554688 -13.3125 5.535156 -13.3125 5.515625 -13.3125 L 5.515625 -1.484375 C 5.535156 -1.128906 5.671875 -0.828125 5.921875 -0.578125 C 6.171875 -0.328125 6.46875 -0.203125 6.8125 -0.203125 L 7.078125 -0.203125 L 7.078125 0 L 0.90625 0 L 0.90625 -0.203125 L 1.171875 -0.203125 C 1.660156 -0.203125 2.035156 -0.410156 2.296875 -0.828125 C 2.398438 -1.015625 2.457031 -1.226562 2.46875 -1.46875 L 2.46875 -12.71875 C 2.457031 -13.070312 2.328125 -13.375 2.078125 -13.625 C 1.828125 -13.875 1.523438 -14 1.171875 -14 L 0.90625 -14 L 0.90625 -14.203125 L 7.875 -14.203125 C 9.1875 -14.203125 10.296875 -13.921875 11.203125 -13.359375 C 11.660156 -13.066406 12.023438 -12.664062 12.296875 -12.15625 C 12.566406 -11.65625 12.703125 -10.992188 12.703125 -10.171875 C 12.703125 -9.359375 12.414062 -8.570312 11.84375 -7.8125 C 11.28125 -7.050781 10.457031 -6.617188 9.375 -6.515625 C 10.15625 -6.253906 10.847656 -5.660156 11.453125 -4.734375 C 12.910156 -2.390625 13.988281 -0.992188 14.6875 -0.546875 C 15.039062 -0.328125 15.484375 -0.210938 16.015625 -0.203125 L 16.015625 0 L 14.03125 0 C 12.851562 0 11.875 -0.15625 11.09375 -0.46875 C 10.3125 -0.78125 9.695312 -1.328125 9.25 -2.109375 C 9 -2.554688 8.441406 -3.710938 7.578125 -5.578125 C 7.191406 -6.398438 6.726562 -6.851562 6.1875 -6.9375 L 6.1875 -7.140625 L 6.8125 -7.140625 C 7.425781 -7.140625 7.96875 -7.320312 8.4375 -7.6875 C 8.90625 -8.050781 9.21875 -8.648438 9.375 -9.484375 C 9.425781 -9.765625 9.453125 -9.984375 9.453125 -10.140625 C 9.453125 -11.253906 9.226562 -12.054688 8.78125 -12.546875 C 8.34375 -13.046875 7.769531 -13.300781 7.0625 -13.3125 C 6.925781 -13.3125 6.722656 -13.3125 6.453125 -13.3125 Z M 6.453125 -13.3125 "/></g></g></g><g fill="#000000" fill-opacity="1"><g transform="translate(322.388508, 123.930457)"><g><path d="M 1.109375 -0.203125 C 1.460938 -0.203125 1.765625 -0.328125 2.015625 -0.578125 C 2.265625 -0.828125 2.398438 -1.128906 2.421875 -1.484375 L 2.421875 -12.71875 C 2.398438 -13.070312 2.265625 -13.375 2.015625 -13.625 C 1.765625 -13.875 1.460938 -14 1.109375 -14 L 0.859375 -14 L 0.859375 -14.203125 L 7.015625 -14.203125 L 7 -14 L 6.765625 -14 C 6.410156 -14 6.101562 -13.875 5.84375 -13.625 C 5.582031 -13.375 5.453125 -13.070312 5.453125 -12.71875 L 5.453125 -0.875 L 8.125 -0.875 C 9.101562 -0.875 9.925781 -1.15625 10.59375 -1.71875 C 11.269531 -2.289062 11.769531 -3.097656 12.09375 -4.140625 L 12.296875 -4.140625 L 11.359375 0 L 0.859375 0 L 0.859375 -0.203125 Z M 1.109375 -0.203125 "/></g></g></g></svg>