<svg xmlns="http://www.w3.org/2000/svg" xmlns:xlink="http://www.w3.org/1999/xlink" width="500" zoomAndPan="magnify" viewBox="0 0 375 374.999991" height="500" preserveAspectRatio="xMidYMid meet" version="1.0"><defs><clipPath id="87ad25528f"><path d="M 81 62 L 311 62 L 311 323.160156 L 81 323.160156 Z M 81 62 " clip-rule="nonzero"/></clipPath><clipPath id="d507475b7b"><path d="M 71 51.660156 L 301 51.660156 L 301 312 L 71 312 Z M 71 51.660156 " clip-rule="nonzero"/></clipPath><clipPath id="45a74a003d"><path d="M 82 62 L 301 62 L 301 312 L 82 312 Z M 82 62 " clip-rule="nonzero"/></clipPath><clipPath id="e650dafb37"><path d="M 191.550781 51.820312 L 236.203125 51.660156 C 235.394531 82.511719 295.898438 140.496094 300.75 147.121094 C 275.839844 150.1875 252.542969 152.125 236.203125 138.558594 L 236.039062 231.597656 C 235.71875 256.792969 224.878906 275.527344 211.773438 287.960938 C 210.640625 289.09375 209.507812 290.222656 208.214844 291.195312 C 191.390625 305.40625 174.890625 312.03125 152.238281 311.867188 C 129.914062 311.546875 113.089844 303.144531 98.855469 290.871094 C 88.175781 281.667969 79.601562 269.710938 74.75 253.238281 C 64.234375 217.058594 77.824219 181.84375 107.914062 161.332031 C 108.398438 160.847656 109.042969 160.359375 109.691406 160.042969 C 123.441406 150.511719 144.796875 144.859375 164.695312 148.085938 L 164.695312 193.640625 C 150.945312 190.082031 138.648438 193.152344 129.59375 200.742188 C 129.429688 200.742188 129.429688 200.90625 129.265625 201.066406 C 120.53125 208.496094 115.515625 219.480469 116.164062 231.914062 C 117.78125 254.207031 136.222656 268.097656 156.285156 267.128906 C 156.285156 267.128906 156.445312 267.128906 156.445312 267.128906 C 175.859375 265.1875 191.875 249.363281 191.390625 228.042969 Z M 191.550781 51.820312 " clip-rule="evenodd"/></clipPath></defs><g clip-path="url(#87ad25528f)"><path fill="#fab8c4" d="M 201.566406 63.128906 L 246.21875 62.96875 C 245.410156 93.816406 305.914062 151.804688 310.765625 158.425781 C 285.855469 161.492188 262.558594 163.433594 246.21875 149.863281 L 246.054688 242.902344 C 245.734375 268.097656 234.894531 286.832031 221.789062 299.269531 C 220.65625 300.402344 219.527344 301.53125 218.230469 302.5 C 201.40625 316.714844 184.90625 323.335938 162.257812 323.175781 C 139.929688 322.855469 123.105469 314.453125 108.871094 302.175781 C 98.195312 292.972656 89.617188 281.019531 84.765625 264.542969 C 74.25 228.363281 87.839844 193.152344 117.929688 172.640625 C 118.417969 172.15625 119.058594 171.667969 119.707031 171.347656 C 133.460938 161.816406 154.816406 156.164062 174.714844 159.394531 L 174.714844 204.945312 C 160.960938 201.390625 148.667969 204.457031 139.605469 212.046875 C 139.445312 212.046875 139.445312 212.210938 139.28125 212.371094 C 130.550781 219.800781 125.53125 230.789062 126.179688 243.222656 C 127.796875 265.515625 146.242188 279.402344 166.300781 278.4375 C 166.300781 278.4375 166.460938 278.4375 166.460938 278.4375 C 185.875 276.496094 201.890625 260.667969 201.40625 239.347656 Z M 201.566406 63.128906 " fill-opacity="1" fill-rule="evenodd"/></g><g clip-path="url(#d507475b7b)"><path fill="#fab8c4" d="M 191.550781 51.824219 L 236.203125 51.660156 C 235.394531 82.511719 295.898438 140.496094 300.75 147.117188 C 275.839844 150.1875 252.542969 152.125 236.203125 138.558594 L 236.039062 231.59375 C 235.71875 256.789062 224.878906 275.527344 211.773438 287.960938 C 210.640625 289.09375 209.511719 290.226562 208.214844 291.191406 C 191.390625 305.40625 174.890625 312.03125 152.238281 311.867188 C 129.914062 311.546875 113.089844 303.148438 98.851562 290.871094 C 88.175781 281.667969 79.601562 269.710938 74.75 253.234375 C 64.234375 217.058594 77.820312 181.84375 107.914062 161.335938 C 108.398438 160.847656 109.042969 160.363281 109.691406 160.039062 C 123.445312 150.511719 144.800781 144.859375 164.695312 148.089844 L 164.695312 193.636719 C 150.945312 190.082031 138.652344 193.152344 129.589844 200.742188 C 129.429688 200.742188 129.429688 200.90625 129.265625 201.066406 C 120.53125 208.496094 115.515625 219.480469 116.164062 231.917969 C 117.78125 254.207031 136.222656 268.097656 156.285156 267.128906 C 156.285156 267.128906 156.445312 267.128906 156.445312 267.128906 C 175.859375 265.191406 191.875 249.363281 191.390625 228.039062 Z M 191.550781 51.824219 " fill-opacity="1" fill-rule="evenodd"/></g><g clip-path="url(#45a74a003d)"><g clip-path="url(#e650dafb37)"><path fill="#000000" d="M 203.253906 63.136719 L 247.90625 62.976562 C 247.097656 93.824219 307.601562 151.808594 312.453125 158.433594 C 287.542969 161.5 264.246094 163.441406 247.90625 149.871094 L 247.742188 242.910156 C 247.421875 268.105469 236.582031 286.839844 223.476562 299.277344 C 222.34375 300.410156 221.214844 301.539062 219.917969 302.507812 C 203.09375 316.722656 186.59375 323.34375 163.945312 323.183594 C 141.617188 322.859375 124.792969 314.460938 110.558594 302.183594 C 99.882812 292.980469 91.304688 281.027344 86.453125 264.550781 C 75.9375 228.371094 89.527344 193.160156 119.617188 172.648438 C 120.101562 172.160156 120.746094 171.675781 121.394531 171.355469 C 135.148438 161.824219 156.503906 156.171875 176.402344 159.402344 L 176.402344 204.953125 C 162.648438 201.398438 150.355469 204.464844 141.292969 212.054688 C 141.132812 212.054688 141.132812 212.21875 140.96875 212.378906 C 132.238281 219.808594 127.21875 230.796875 127.867188 243.230469 C 129.484375 265.523438 147.925781 279.410156 167.988281 278.441406 C 167.988281 278.441406 168.148438 278.441406 168.148438 278.441406 C 187.5625 276.503906 203.578125 260.675781 203.09375 239.355469 Z M 203.253906 63.136719 " fill-opacity="1" fill-rule="evenodd"/></g></g></svg>